<svg xmlns="http://www.w3.org/2000/svg" viewBox="0 0 94.86 94.86"><defs><style>.cls-1{fill:none;stroke:#fff;stroke-miterlimit:10;stroke-width:5px;}.cls-2{fill:#fff;}</style></defs><title>Asset 2</title><g id="Layer_2" data-name="Layer 2"><g id="Layer_1-2" data-name="Layer 1"><path class="cls-1" d="M68.68,2.5H26.19C13.16,2.5,2.5,13.39,2.5,26.69V68.17c0,13.31,10.66,24.19,23.69,24.19H68.67c13,0,23.69-10.89,23.69-24.19V26.69C92.36,13.39,81.7,2.5,68.68,2.5Z"/><path id="Path_123" data-name="Path 123" class="cls-2" d="M52.54,32.11h6.81V21.89H51.51c-11.1,0-10.84,9-10.84,10.29v6.74H35.51V49.14h5.16V73H50.84V49.14h6.81l1.7-10.22H50.83V33.81a1.54,1.54,0,0,1,1.37-1.7A1,1,0,0,1,52.54,32.11Z"/></g></g></svg>