<svg xmlns="http://www.w3.org/2000/svg" viewBox="0 0 94.86 94.86"><defs><style>.cls-1{fill:none;stroke:#fff;stroke-miterlimit:10;stroke-width:5px;}.cls-2{fill:#fff;}</style></defs><title>Asset 3</title><g id="Layer_2" data-name="Layer 2"><g id="Layer_1-2" data-name="Layer 1"><path class="cls-1" d="M2.5,26.19V68.67c0,13,10.89,23.69,24.19,23.69H68.17c13.31,0,24.19-10.66,24.19-23.69V26.19c0-13-10.89-23.69-24.19-23.69H26.69C13.39,2.5,2.5,13.16,2.5,26.19Z"/><path class="cls-2" d="M59.94,21h-25A14.14,14.14,0,0,0,21,35.22V59.63A14.13,14.13,0,0,0,34.93,73.87h25A14.13,14.13,0,0,0,73.88,59.63V35.22A14.14,14.14,0,0,0,59.94,21Zm9.2,38.3a9.78,9.78,0,0,1-9.65,9.86H35.37a9.78,9.78,0,0,1-9.65-9.86V35.57a9.78,9.78,0,0,1,9.65-9.85H59.49a9.77,9.77,0,0,1,9.65,9.85Z"/><path class="cls-2" d="M47.43,33.85a13.59,13.59,0,1,0,13.3,13.87v-.28A13.45,13.45,0,0,0,47.43,33.85Zm0,22.35a8.77,8.77,0,1,1,8.58-9v.19a8.67,8.67,0,0,1-8.58,8.76Z"/><ellipse class="cls-2" cx="61.44" cy="33.12" rx="3" ry="3.07"/></g></g></svg>