<svg xmlns="http://www.w3.org/2000/svg" viewBox="0 0 94.86 94.86"><defs><style>.cls-1{fill:none;stroke:#fff;stroke-miterlimit:10;stroke-width:5px;}.cls-2{fill:#fff;}</style></defs><title>Asset 1</title><g id="Layer_2" data-name="Layer 2"><g id="Layer_1-2" data-name="Layer 1"><path class="cls-1" d="M68.67,2.5H26.19C13.16,2.5,2.5,13.39,2.5,26.69V68.17c0,13.31,10.66,24.19,23.69,24.19H68.67c13,0,23.69-10.89,23.69-24.19V26.69C92.36,13.39,81.7,2.5,68.67,2.5Z"/><path id="Twitter" class="cls-2" d="M71.29,30.85a18.54,18.54,0,0,1-6,2.36,9.37,9.37,0,0,0-6.93-3.07,9.62,9.62,0,0,0-9.49,9.74,10.34,10.34,0,0,0,.24,2.22A26.71,26.71,0,0,1,29.51,31.92a9.94,9.94,0,0,0-1.29,4.9,9.8,9.8,0,0,0,4.22,8.1,9.31,9.31,0,0,1-4.3-1.21v.12a9.67,9.67,0,0,0,7.62,9.54,9.15,9.15,0,0,1-2.5.35,8.88,8.88,0,0,1-1.78-.18,9.52,9.52,0,0,0,8.87,6.76,18.87,18.87,0,0,1-14.06,4,26.52,26.52,0,0,0,14.56,4.37c17.46,0,27-14.84,27-27.7,0-.43,0-.85,0-1.27a19.44,19.44,0,0,0,4.74-5,18.53,18.53,0,0,1-5.46,1.54A9.67,9.67,0,0,0,71.29,30.85Z"/></g></g></svg>