<svg id="Capa_1" data-name="Capa 1" xmlns="http://www.w3.org/2000/svg" viewBox="0 0 297.05 276.14"><defs><style>.cls-1{fill:#d1d0a7;}.cls-2{fill:#e5e54c;}</style></defs><title>united</title><path class="cls-1" d="M157.9,251.48a13.65,13.65,0,0,1,1.34,18,13.43,13.43,0,0,1-20,1.18l-1-1a23.17,23.17,0,0,0,3.41-2.8l5.56-5.57a22.08,22.08,0,0,0,6.42-14.09Z" transform="translate(0 -10.45)"/><path class="cls-1" d="M138.72,238.36a10.22,10.22,0,0,1,0,14.45l-5.57,5.56a10.2,10.2,0,0,1-14.45,0l-.11-.1a10.22,10.22,0,0,1,0-14.45l5.57-5.57a10.22,10.22,0,0,1,14.45,0Z" transform="translate(0 -10.45)"/><path class="cls-1" d="M121,208.24a10.22,10.22,0,0,1,0,14.45l-12.24,12.24a10.2,10.2,0,0,1-14.45,0l-.11-.11a10.22,10.22,0,0,1,0-14.45l12.24-12.24a10.22,10.22,0,0,1,14.45,0Z" transform="translate(0 -10.45)"/><path class="cls-2" d="M291.92,85.3a17.67,17.67,0,0,1,2.69,21.41l-1.94,4.9a11.67,11.67,0,0,1-.73,1.51c-3.51,14.82-13,31.56-30.68,54.07a12.69,12.69,0,0,1-1,1.09l9.43,9.43a25.4,25.4,0,0,1-2.22,37.87,25,25,0,0,1-11.18,5,25.29,25.29,0,0,1-18.85,42.11,26.23,26.23,0,0,1-16.94-6.29,25.42,25.42,0,0,1-9.23,15.38,25.14,25.14,0,0,1-15.55,5.38,26.22,26.22,0,0,1-18.41-7.64l-3.68-3.68a24.78,24.78,0,0,1-5,11.11,25.41,25.41,0,0,1-37.87,2.22l-5.86-5.85a22.06,22.06,0,0,1-14.66-6.41l-.08-.08-.07-.07A22.05,22.05,0,0,1,103.65,252l-2.12-2.12h0a22.12,22.12,0,0,1-15.72-6.51l0,0-.1-.09a22.1,22.1,0,0,1-6.48-15.69c0-.3,0-.6,0-.9-.06-.08-.14-.15-.2-.23-.68.06-1.36.1-2,.1a22.07,22.07,0,0,1-15.71-6.51l0,0-.09-.09a22,22,0,0,1-6.3-18.39,22,22,0,0,1-15.28-6.46l-.1-.1s0,0,0,0A22.23,22.23,0,0,1,38,165.06a98.21,98.21,0,0,1-4-12.44L4.21,119.3c-.21-.23-.4-.46-.58-.7a17.66,17.66,0,0,1,1.5-23.17L74.69,25.76a17.61,17.61,0,0,1,24-.92l.39.36,3.14,2.95a25.32,25.32,0,0,1,5.94-.94L197.63,14.9l1.93-1.1a17.6,17.6,0,0,1,22.8,1.83Zm-8,15.86a5.61,5.61,0,0,0-.48-7.39L213.86,24.1a5.62,5.62,0,0,0-7.64-.29l-4.64,2.65h0L109.07,39.19a13.25,13.25,0,0,0,0,26.5l49.32.63,93.43,93.46c13.35-17,25.27-34.81,28.65-50.32a5.6,5.6,0,0,1,1-2.27Zm-23.85,105a13.42,13.42,0,0,0,1.18-20L153.29,78.25,109,77.69A25.23,25.23,0,0,1,91.37,34.46l-.55-.52a5.58,5.58,0,0,0-3.66-1.36,5.65,5.65,0,0,0-4,1.65L13.62,103.9a5.63,5.63,0,0,0-.48,7.39l31.21,34.84a5.68,5.68,0,0,1,1,2.27c.51,2.36,1.17,4.75,1.94,7.17l0,0a22.21,22.21,0,0,1,31.42,0l.08.08.07.07A22.06,22.06,0,0,1,84.76,166a22.17,22.17,0,0,1,26.69,3.56l.09.09,0,0a22.12,22.12,0,0,1,5,23.63,22,22,0,0,1,12.72,6.28l.11.11a22.07,22.07,0,0,1,5.93,10.84L185.81,261a14.09,14.09,0,0,0,9.93,4.13,13,13,0,0,0,8.1-2.79,13.4,13.4,0,0,0,1.18-20l-48.81-48.81a6.45,6.45,0,0,1,0-9.11,6.53,6.53,0,0,1,9.25,0l62.08,62.08a14.09,14.09,0,0,0,9.92,4.13,13,13,0,0,0,8.11-2.79,13.42,13.42,0,0,0,1.18-20l-62.37-62.37a6.49,6.49,0,1,1,9.12-9.24L242,204.83a14.09,14.09,0,0,0,9.92,4.13A13,13,0,0,0,260.05,206.17ZM159.24,269.51a13.65,13.65,0,0,0-1.34-18l-4.28-4.28a22.08,22.08,0,0,1-6.42,14.09l-5.56,5.57a23.17,23.17,0,0,1-3.41,2.8l1,1a13.43,13.43,0,0,0,20-1.18Zm-20.52-16.7a10.22,10.22,0,0,0,0-14.45l-.11-.11a10.22,10.22,0,0,0-14.45,0l-5.57,5.57a10.22,10.22,0,0,0,0,14.45l.11.1a10.2,10.2,0,0,0,14.45,0ZM121,222.69a10.22,10.22,0,0,0,0-14.45l-.11-.11a10.22,10.22,0,0,0-14.45,0L94.15,220.37a10.22,10.22,0,0,0,0,14.45l.11.11a10.2,10.2,0,0,0,14.45,0Zm-17.86-30a10.22,10.22,0,0,0,0-14.45l-.1-.1a10.21,10.21,0,0,0-14.46,0L69.62,197a10.22,10.22,0,0,0,0,14.45l.11.11a10.22,10.22,0,0,0,14.45,0ZM70.43,178.57a10.22,10.22,0,0,0,0-14.45l-.11-.1a10.2,10.2,0,0,0-14.45,0l-8,8a10.22,10.22,0,0,0,0,14.45l.11.11a10.22,10.22,0,0,0,14.45,0Z" transform="translate(0 -10.45)"/><path class="cls-1" d="M283.42,93.77a5.61,5.61,0,0,1,.48,7.39l-2.39,6a5.6,5.6,0,0,0-1,2.27c-3.38,15.51-15.3,33.3-28.65,50.32L158.39,66.32l-49.32-.63a13.25,13.25,0,0,1,0-26.5l92.48-12.72h0l4.64-2.65a5.62,5.62,0,0,1,7.64.29Z" transform="translate(0 -10.45)"/><path class="cls-1" d="M261.23,186.19a13.42,13.42,0,0,1-1.18,20,13,13,0,0,1-8.11,2.79,14.09,14.09,0,0,1-9.92-4.13L193.5,156.31a6.49,6.49,0,0,0-9.12,9.24l62.37,62.37a13.42,13.42,0,0,1-1.18,20,13,13,0,0,1-8.11,2.79,14.09,14.09,0,0,1-9.92-4.13l-62.08-62.08a6.49,6.49,0,0,0-9.25,9.11L205,242.4a13.4,13.4,0,0,1-1.18,20,13,13,0,0,1-8.1,2.79,14.09,14.09,0,0,1-9.93-4.13l-50.44-50.44a22.07,22.07,0,0,0-5.93-10.84l-.11-.11a22,22,0,0,0-12.72-6.28,22.12,22.12,0,0,0-5-23.63l0,0-.09-.09A22.17,22.17,0,0,0,84.76,166,22.06,22.06,0,0,0,79,155.68l-.07-.07-.08-.08a22.21,22.21,0,0,0-31.42,0l0,0c-.77-2.42-1.43-4.81-1.94-7.17a5.68,5.68,0,0,0-1-2.27L13.14,111.29a5.63,5.63,0,0,1,.48-7.39L83.18,34.23a5.65,5.65,0,0,1,4-1.65,5.58,5.58,0,0,1,3.66,1.36l.55.52A25.23,25.23,0,0,0,109,77.69l44.31.56Z" transform="translate(0 -10.45)"/><path class="cls-1" d="M103.09,178.21a10.22,10.22,0,0,1,0,14.45L84.18,211.58a10.22,10.22,0,0,1-14.45,0l-.11-.11a10.22,10.22,0,0,1,0-14.45l18.91-18.91a10.21,10.21,0,0,1,14.46,0Z" transform="translate(0 -10.45)"/><path class="cls-1" d="M70.43,164.12a10.22,10.22,0,0,1,0,14.45l-8,8a10.22,10.22,0,0,1-14.45,0l-.11-.11a10.22,10.22,0,0,1,0-14.45l8-8a10.2,10.2,0,0,1,14.45,0Z" transform="translate(0 -10.45)"/></svg>