<svg id="Capa_1" data-name="Capa 1" xmlns="http://www.w3.org/2000/svg" viewBox="0 0 297.05 276.14"><defs><style>.cls-1{fill:#c79871;}.cls-2{fill:#d1d0a7;}.cls-3{fill:#845335;}.cls-4{fill:#e5e54c;}</style></defs><title>united2</title><path class="cls-1" d="M283.42,83.32a5.61,5.61,0,0,1,.48,7.39l-1,2.51-1.43,3.52a5.59,5.59,0,0,0-1,2.27c-3.38,15.5-15.28,33.29-28.62,50.28L158.39,55.87l-49.32-.63a13.25,13.25,0,1,1,0-26.5L201.55,16h0l4.63-2.64h0a4.94,4.94,0,0,1,.84-.6,5.8,5.8,0,0,1,1.82-.67,5.64,5.64,0,0,1,5,1.57Z" transform="translate(0 0)"/><path class="cls-2" d="M280.51,99c-3.38,15.51-15.3,33.3-28.65,50.32h0c13.34-17,25.24-34.78,28.62-50.28a5.59,5.59,0,0,1,1-2.27l1.43-3.52-1.39,3.49A5.59,5.59,0,0,0,280.51,99Z" transform="translate(0 0)"/><path class="cls-2" d="M262.31,193.46q.19-.24.36-.48Q262.51,193.22,262.31,193.46Z" transform="translate(0 0)"/><path class="cls-2" d="M261.25,194.66a13.38,13.38,0,0,0,1-1.13A11.84,11.84,0,0,1,261.25,194.66Z" transform="translate(0 0)"/><path class="cls-2" d="M261.25,194.66l-.05.06c-.17.17-.34.33-.52.48Z" transform="translate(0 0)"/><path class="cls-2" d="M260.64,195.24c-.19.18-.39.34-.59.5a13,13,0,0,1-8.11,2.79,14,14,0,0,1-7.22-2,14.05,14.05,0,0,0,7.2,2,13,13,0,0,0,8.13-2.79h0C260.27,195.56,260.46,195.4,260.64,195.24Z" transform="translate(0 0)"/><path class="cls-2" d="M207.65,247.12q.16-.35.3-.69A5.15,5.15,0,0,1,207.65,247.12Z" transform="translate(0 0)"/><path class="cls-2" d="M207.31,247.79c.12-.22.23-.45.34-.67A7,7,0,0,1,207.31,247.79Z" transform="translate(0 0)"/><path class="cls-2" d="M207.06,12.76a4.94,4.94,0,0,0-.84.6h0A4.7,4.7,0,0,1,207.06,12.76Z" transform="translate(0 0)"/><path class="cls-3" d="M260.05,195.72a13,13,0,0,1-8.13,2.79,14.05,14.05,0,0,1-7.2-2,13.61,13.61,0,0,1-2.7-2.1l0,0-48.5-48.59a6.49,6.49,0,0,0-9.18.06,6.4,6.4,0,0,0-1.84,4,5.72,5.72,0,0,0,0,1.17,6.42,6.42,0,0,0,1.9,4.07l62.37,62.37a13.42,13.42,0,0,1,3.92,9.38c0,.25,0,.49,0,.74a13.41,13.41,0,0,1-5.08,9.8,13,13,0,0,1-8.11,2.79,14.1,14.1,0,0,1-9.92-4.13L165.46,174l0,0a6.52,6.52,0,0,0-9.23,0,6.41,6.41,0,0,0-1.84,5.23,4.85,4.85,0,0,0,.08.55,6.32,6.32,0,0,0,1.76,3.41L205,232a13.4,13.4,0,0,1,3.68,12c0,.22-.09.43-.14.64s-.11.41-.17.62-.13.41-.2.62-.14.38-.22.57-.19.46-.3.69-.22.45-.34.67a13.26,13.26,0,0,1-3.47,4.1,13,13,0,0,1-8.1,2.79,14.1,14.1,0,0,1-9.93-4.13l-50.48-50.46a20.09,20.09,0,0,0-.92-3,21,21,0,0,0-1.25-2.73,21.68,21.68,0,0,0-3.79-5.1l-.11-.11a22,22,0,0,0-12.64-6.27,22,22,0,0,0-.25-16.39c-.26-.63-.55-1.25-.87-1.85a22,22,0,0,0-4-5.4l-.09-.09A22.17,22.17,0,0,0,91.54,153c-.7.15-1.41.32-2.11.52-.23.06-.45.14-.68.22a22.12,22.12,0,0,0-4,1.78A22.11,22.11,0,0,0,79,145.23l-.07-.07-.08-.08a22.15,22.15,0,0,0-21.14-5.83c-.35.08-.7.18-1,.28A22,22,0,0,0,47.41,145c-.76-2.4-1.41-4.76-1.92-7.1a5.59,5.59,0,0,0-1-2.27l-31.35-34.8a5.63,5.63,0,0,1,.48-7.39L83.18,23.78a5.61,5.61,0,0,1,4-1.65,5.5,5.5,0,0,1,1.93.35,5.6,5.6,0,0,1,1.71,1l.55.52a22.62,22.62,0,0,0-1.75,1.92,23,23,0,0,0-2.21,3.13c-.23.36-.43.72-.62,1.09s-.39.74-.56,1.12a25.24,25.24,0,0,0,16.48,35.16l.09,0a20.57,20.57,0,0,0,2.36.49,25.82,25.82,0,0,0,3.84.3l44.29.56,30.85,30.83,77.09,77.11a13.41,13.41,0,0,1,3.53,12.68c-.05.21-.1.42-.17.63s-.13.41-.2.62-.15.41-.23.61a13,13,0,0,1-1.49,2.7q-.17.24-.36.48l-.05.07a13.38,13.38,0,0,1-1,1.13l-.57.54s0,0,0,0c-.18.16-.37.32-.57.47Z" transform="translate(0 0)"/><path class="cls-2" d="M184.32,145.84a6.49,6.49,0,0,1,9.18-.06L242,194.37l-48.5-48.51a6.49,6.49,0,0,0-9.18.06,6.41,6.41,0,0,0-1.84,3.94A6.4,6.4,0,0,1,184.32,145.84Z" transform="translate(0 0)"/><path class="cls-2" d="M185.79,250.61l-50.44-50.44,0-.08,50.48,50.46a14.1,14.1,0,0,0,9.93,4.13,13,13,0,0,0,8.1-2.79,13.26,13.26,0,0,0,3.47-4.1A12.89,12.89,0,0,1,205,250.9a14.74,14.74,0,0,1-1.18,1,13,13,0,0,1-8.1,2.79A14.1,14.1,0,0,1,185.79,250.61Z" transform="translate(0 0)"/><polygon class="cls-2" points="184.14 98.63 153.29 67.8 153.31 67.8 184.14 98.63"/><path class="cls-3" d="M161.75,248.17a13.65,13.65,0,0,1-.43,6.91,13.64,13.64,0,0,1-2.08,3.95,13.19,13.19,0,0,1-1.05,1.18,13.45,13.45,0,0,1-17.82,1c-.39-.32-.77-.65-1.13-1l-1-1a22.59,22.59,0,0,0,3.39-2.78l5.56-5.57c.47-.47.92-1,1.34-1.47a22.11,22.11,0,0,0,3.53-5.89c.11-.28.22-.56.32-.84a21.56,21.56,0,0,0,1-3.91c.11-.65.19-1.31.24-2l4.27,4.27A13.62,13.62,0,0,1,161.75,248.17Z" transform="translate(0 0)"/><path class="cls-4" d="M157.9,241a13.53,13.53,0,0,1,3.85,7.14,13.62,13.62,0,0,0-3.85-7.11l-4.27-4.27v0Z" transform="translate(0 0)"/><path class="cls-2" d="M245.57,237.47a13,13,0,0,1-8.11,2.79,14.1,14.1,0,0,1-9.92-4.13l-62.08-62.08a6.49,6.49,0,0,0-11.09,5.15,6.41,6.41,0,0,1,1.84-5.23,6.52,6.52,0,0,1,9.23,0l0,0,62.08,62.08a14.1,14.1,0,0,0,9.92,4.13,13,13,0,0,0,8.11-2.79,13.41,13.41,0,0,0,5.08-9.8,13.32,13.32,0,0,1-3.93,8.86A14,14,0,0,1,245.57,237.47Z" transform="translate(0 0)"/><path class="cls-4" d="M147.21,250.84c.46-.46.9-.94,1.33-1.44-.42.51-.87,1-1.34,1.47l-5.56,5.57a22.59,22.59,0,0,1-3.39,2.78h0a23.4,23.4,0,0,0,3.41-2.8Z" transform="translate(0 0)"/><path class="cls-1" d="M124.16,227.8a10.22,10.22,0,0,1,14.45,0l.11.11a10.22,10.22,0,0,1,0,14.45l-5.57,5.56,0,0c-.25.25-.51.48-.77.7s-.53.4-.8.59l-.08.05-.38.23a10.12,10.12,0,0,1-1.44.71l-.36.13a10.53,10.53,0,0,1-1.56.41c-.24,0-.49.08-.73.1a9.66,9.66,0,0,1-2.15,0c-.24,0-.49-.06-.73-.1a10.53,10.53,0,0,1-1.56-.41l-.36-.13a10.68,10.68,0,0,1-1.44-.71l-.38-.23-.08-.05c-.27-.19-.54-.38-.8-.59a10.61,10.61,0,0,1-.8-.72l-.11-.1a10.22,10.22,0,0,1,0-14.45Z" transform="translate(0 0)"/><path class="cls-4" d="M132.35,248.64a8.64,8.64,0,0,1-.8.59C131.82,249,132.09,248.85,132.35,248.64Z" transform="translate(0 0)"/><path class="cls-4" d="M131.09,249.51l.38-.23A3.85,3.85,0,0,1,131.09,249.51Z" transform="translate(0 0)"/><path class="cls-4" d="M129.29,250.35l.36-.13Z" transform="translate(0 0)"/><path class="cls-4" d="M124.85,250.86c-.25,0-.49-.06-.73-.1C124.36,250.8,124.61,250.84,124.85,250.86Z" transform="translate(0 0)"/><path class="cls-2" d="M129.31,189.22a22,22,0,0,0-12.72-6.28.38.38,0,0,0,0-.1,22,22,0,0,1,12.64,6.27l.11.11a21.68,21.68,0,0,1,3.79,5.1,22.38,22.38,0,0,0-3.74-5Z" transform="translate(0 0)"/><path class="cls-1" d="M106.44,197.68a10.22,10.22,0,0,1,14.45,0l.11.11a10.22,10.22,0,0,1,0,14.45l-12.29,12.24,0,0a10.12,10.12,0,0,1-5.68,2.87l-.17,0c-.27,0-.53.06-.8.08h-1c-.27,0-.53,0-.8-.08l-.17,0a10.12,10.12,0,0,1-5.68-2.87l0,0-.11-.11a10.22,10.22,0,0,1,0-14.45Z" transform="translate(0 0)"/><path class="cls-2" d="M111.5,159.22a22.22,22.22,0,0,0-20-6.19,22.17,22.17,0,0,1,19.91,6.08l.09.09a22,22,0,0,1,4,5.4,21.89,21.89,0,0,0-3.91-5.29Z" transform="translate(0 0)"/><path d="M185.79,250.61a14.1,14.1,0,0,0,9.93,4.13,13,13,0,0,0,8.1-2.79,14.74,14.74,0,0,0,1.18-1,12.89,12.89,0,0,0,2.31-3.11,7,7,0,0,0,.34-.67,5.15,5.15,0,0,0,.3-.69c.08-.19.16-.38.22-.57s.14-.41.2-.62a6.29,6.29,0,0,0,.17-.62,4.56,4.56,0,0,0,.14-.64,13.37,13.37,0,0,0-2.61-10.91,14.74,14.74,0,0,0-1-1.18l-48.81-48.81a6.37,6.37,0,0,1-1.76-3.33,4.85,4.85,0,0,1-.08-.55,6.49,6.49,0,0,1,11.09-5.15l62.08,62.08a14.1,14.1,0,0,0,9.92,4.13,13,13,0,0,0,8.11-2.79,14,14,0,0,0,1.15-1,13.32,13.32,0,0,0,3.93-8.86c0-.25,0-.49,0-.74a13.35,13.35,0,0,0-2.9-8.31,14,14,0,0,0-1-1.15L184.38,155a6.45,6.45,0,0,1-1.9-4,5.72,5.72,0,0,1,0-1.17,6.41,6.41,0,0,1,1.84-3.94,6.49,6.49,0,0,1,9.18-.06L242,194.37l0,0a13.61,13.61,0,0,0,2.7,2.1,14,14,0,0,0,7.22,2,13,13,0,0,0,8.11-2.79c.2-.16.4-.32.59-.5,0,0,0,0,0,0,.18-.15.35-.31.52-.48l.05-.06a11.84,11.84,0,0,0,1-1.13l.05-.07q.19-.24.36-.48a13,13,0,0,0,1.49-2.7,5.77,5.77,0,0,0,.23-.61,5,5,0,0,0,.2-.62,4.91,4.91,0,0,0,.17-.63,13.37,13.37,0,0,0-2.49-11.56,14,14,0,0,0-1-1.15L184.14,98.63,153.31,67.8h0L109,67.24a25.82,25.82,0,0,1-3.84-.3c-.8-.13-1.58-.29-2.36-.49l-.09,0a25.46,25.46,0,0,1-9.79-5c-.64-.54-1.26-1.11-1.85-1.71a25.2,25.2,0,0,1-4.84-28.42c.18-.37.36-.75.56-1.12s.4-.73.62-1.09a26.48,26.48,0,0,1,2.21-3.13q.82-1,1.77-1.92l-.55-.52a5.71,5.71,0,0,0-3.66-1.36,5.73,5.73,0,0,0-1.65.24,5.6,5.6,0,0,0-2.37,1.41L13.62,93.45a5.63,5.63,0,0,0-.48,7.39l31.21,34.84a5.59,5.59,0,0,1,1,2.27c.51,2.36,1.17,4.75,1.94,7.17l.12-.11s0,.05,0,.07h0a22.13,22.13,0,0,1,9.23-5.54c.35-.11.69-.2,1-.28a22.2,22.2,0,0,1,21,5.86h0l.08.08.07.07a22,22,0,0,1,5.9,10.28,22.12,22.12,0,0,1,4-1.78l.68-.22c.7-.2,1.41-.37,2.11-.52a22.22,22.22,0,0,1,20,6.19l.09.09a21.89,21.89,0,0,1,3.91,5.29c.32.6.61,1.22.87,1.85a22.1,22.1,0,0,1,.17,16.38h.08a.38.38,0,0,1,0,.1,22,22,0,0,1,12.72,6.28l.11.11a22.38,22.38,0,0,1,3.74,5,21,21,0,0,1,1.25,2.73,20.45,20.45,0,0,1,.89,3l0,0,0,.08ZM109.07,55.24l49.32.63,93.43,93.46,0,0h0c13.35-17,25.27-34.81,28.65-50.32a5.59,5.59,0,0,1,1-2.27l1.39-3.49,1-2.51a5.61,5.61,0,0,0-.48-7.39L213.86,13.65a5.61,5.61,0,0,0-5-1.56,5.8,5.8,0,0,0-1.82.67,4.7,4.7,0,0,0-.87.61L201.56,16,109.07,28.74a13.25,13.25,0,1,0,0,26.5ZM291.92,74.85a17.67,17.67,0,0,1,2.69,21.41l-1.94,4.9a12.34,12.34,0,0,1-.73,1.51c-3.51,14.82-13,31.56-30.68,54.07a12.92,12.92,0,0,1-1,1.09l9.43,9.43a25.42,25.42,0,0,1-2.22,37.87,25,25,0,0,1-11.18,5,25.3,25.3,0,0,1-18.85,42.11A26.25,26.25,0,0,1,220.5,246a25.46,25.46,0,0,1-9.23,15.38,25.13,25.13,0,0,1-15.55,5.38,26.25,26.25,0,0,1-18.41-7.64l-3.68-3.68a24.78,24.78,0,0,1-5,11.11,25.41,25.41,0,0,1-35.69,4.15,25,25,0,0,1-2.18-1.93l-5.86-5.85a22.09,22.09,0,0,1-14.66-6.41l-.08-.08-.07-.07a22.07,22.07,0,0,1-6.44-14.76l-2.12-2.12h0a22.13,22.13,0,0,1-15.68-6.51l-.1-.09a22.14,22.14,0,0,1-6.48-15.69v-.9c-.06-.08-.14-.15-.2-.23-.68.06-1.36.1-2,.1a22.1,22.1,0,0,1-15.71-6.51l-.09-.09a22,22,0,0,1-6.3-18.39,22,22,0,0,1-15.28-6.46l-.1-.1A22.22,22.22,0,0,1,38,154.61a98.46,98.46,0,0,1-4-12.44L4.21,108.85c-.21-.23-.4-.46-.58-.7A17.66,17.66,0,0,1,5.13,85L74.69,15.31a17.61,17.61,0,0,1,24-.92l.39.36,3.14,2.95a25.46,25.46,0,0,1,5.94-.94L197.63,4.45l1.93-1.1a17.59,17.59,0,0,1,22.8,1.83ZM161.74,253.49A13.69,13.69,0,0,0,157.9,241l-4.27-4.28v0h0a19.06,19.06,0,0,1-.23,2,21.56,21.56,0,0,1-1,3.91c-.1.28-.21.56-.32.84a22.11,22.11,0,0,1-3.53,5.89c-.43.5-.87,1-1.33,1.44l-5.56,5.57a23.4,23.4,0,0,1-3.41,2.8h0l0,0,1,1a13.42,13.42,0,0,0,19,0l0,0a12,12,0,0,0,1-1.13h0a13.43,13.43,0,0,0,2.08-4A11,11,0,0,0,161.74,253.49Zm-23-11.13a10.22,10.22,0,0,0,0-14.45l-.11-.11a10.22,10.22,0,0,0-14.45,0l-5.57,5.57a10.22,10.22,0,0,0,0,14.45l.11.1a10.61,10.61,0,0,0,.8.72,8.64,8.64,0,0,0,.8.59l.08.05a3.85,3.85,0,0,0,.38.23,10.68,10.68,0,0,0,1.44.71l.36.13a10.53,10.53,0,0,0,1.56.41c.24,0,.48.08.73.1a9.66,9.66,0,0,0,2.15,0c.25,0,.49-.06.73-.1a10.53,10.53,0,0,0,1.56-.41l.36-.13a10.12,10.12,0,0,0,1.44-.71,3.85,3.85,0,0,0,.38-.23l.08-.05a8.64,8.64,0,0,0,.8-.59c.26-.22.52-.45.77-.7l0,0ZM121,212.24a10.22,10.22,0,0,0,0-14.45l-.11-.11a10.22,10.22,0,0,0-14.45,0L94.15,209.92a10.22,10.22,0,0,0,0,14.45l.11.11a10.15,10.15,0,0,0,5.76,2.89l.17,0a7,7,0,0,0,.8.08h1a7,7,0,0,0,.8-.08l.17,0a10.15,10.15,0,0,0,5.76-2.89Zm-17.86-30a10.22,10.22,0,0,0,0-14.45l-.1-.1a9.8,9.8,0,0,0-.84-.75,3.68,3.68,0,0,0-.41-.31,9.78,9.78,0,0,0-1.67-1,7.41,7.41,0,0,0-.92-.38,10.2,10.2,0,0,0-10.67,2.4L73.41,182.78l-3.79,3.77a10,10,0,0,0-2.42,3.86,10.25,10.25,0,0,0,0,6.74A10.05,10.05,0,0,0,69.62,201l.11.11a10.22,10.22,0,0,0,14.45,0L88,197.34ZM70.43,168.12a10.22,10.22,0,0,0,0-14.45l-.11-.1h0l0,0a10.22,10.22,0,0,0-8.66-2.86,9.82,9.82,0,0,0-3.7,1.3,9.44,9.44,0,0,0-1.26.87,8.26,8.26,0,0,0-.77.7l0,0h0l-8,8h0a10.21,10.21,0,0,0,0,14.44h0l.11.11a10.26,10.26,0,0,0,1.19,1,9.87,9.87,0,0,0,1.73,1,10.29,10.29,0,0,0,2.84.84,9.6,9.6,0,0,0,2.93,0,10.29,10.29,0,0,0,2.84-.84,10,10,0,0,0,1.74-1,10.17,10.17,0,0,0,1.18-1h0Z" transform="translate(0 0)"/><path class="cls-4" d="M108.76,224.48a10.15,10.15,0,0,1-5.76,2.89,10.12,10.12,0,0,0,5.68-2.87l0,0L121,212.24Z" transform="translate(0 0)"/><path class="cls-2" d="M102.8,66.45c.78.2,1.56.36,2.36.49A20.57,20.57,0,0,1,102.8,66.45Z" transform="translate(0 0)"/><path class="cls-4" d="M102.83,227.39a7,7,0,0,1-.8.08C102.3,227.45,102.56,227.43,102.83,227.39Z" transform="translate(0 0)"/><path class="cls-2" d="M92.92,61.4a25.46,25.46,0,0,0,9.79,5A25,25,0,0,1,92.92,61.4Z" transform="translate(0 0)"/><path class="cls-2" d="M100.12,165.64c-.3-.14-.61-.27-.92-.38A7.41,7.41,0,0,1,100.12,165.64Z" transform="translate(0 0)"/><path class="cls-2" d="M91.07,59.69c.59.6,1.21,1.17,1.85,1.71a24.91,24.91,0,0,1-6.26-7.78A25.16,25.16,0,0,0,91.07,59.69Z" transform="translate(0 0)"/><path class="cls-2" d="M90.84,23.49l.55.52q-.94.93-1.77,1.92A22.62,22.62,0,0,1,91.37,24l-.55-.52a5.6,5.6,0,0,0-1.71-1A5.5,5.5,0,0,1,90.84,23.49Z" transform="translate(0 0)"/><path class="cls-2" d="M89.43,153.55l-.68.22C89,153.69,89.2,153.61,89.43,153.55Z" transform="translate(0 0)"/><path class="cls-2" d="M88.58,167.69,73.41,182.78l15.12-15.12a10.2,10.2,0,0,1,10.67-2.4,10.23,10.23,0,0,0-10.6,2.41Z" transform="translate(0 0)"/><path class="cls-2" d="M89.62,25.93a26.48,26.48,0,0,0-2.21,3.13A23,23,0,0,1,89.62,25.93Z" transform="translate(0 0)"/><path class="cls-2" d="M87.41,29.06c-.22.36-.42.73-.62,1.09C87,29.78,87.18,29.42,87.41,29.06Z" transform="translate(0 0)"/><path class="cls-2" d="M86.79,30.15c-.2.37-.38.75-.56,1.12C86.4,30.89,86.59,30.52,86.79,30.15Z" transform="translate(0 0)"/><path class="cls-2" d="M86.23,31.27a25.33,25.33,0,0,0,.43,22.35,25.14,25.14,0,0,1-.43-22.35Z" transform="translate(0 0)"/><path class="cls-1" d="M84.18,201.11a10.22,10.22,0,0,1-14.45,0l-.11-.11a10.19,10.19,0,0,1,0-14.43l3.79-3.79,15.17-15.09,0,0a10.23,10.23,0,0,1,10.6-2.41c.31.11.62.24.92.38a9.78,9.78,0,0,1,1.67,1l.41.31c.26.22.52.45.77.7,0,0,0,0,0,0l.1.1a10.22,10.22,0,0,1,0,14.45L88,197.34Z" transform="translate(0 0)"/><path class="cls-1" d="M70.43,153.67a10.22,10.22,0,0,1,0,14.45l-8,8a10.26,10.26,0,0,1-1.18,1,10.61,10.61,0,0,1-1.74,1,10.28,10.28,0,0,1-8.61,0,10.52,10.52,0,0,1-1.73-1,10.36,10.36,0,0,1-1.19-1l-.11-.1h0a10.21,10.21,0,0,1,0-14.44l8-8,0,0a8.26,8.26,0,0,1,.77-.7,10.85,10.85,0,0,1,1.26-.87,10.17,10.17,0,0,1,3.7-1.3,10.34,10.34,0,0,1,4.84.47,10.18,10.18,0,0,1,3.85,2.43Z" transform="translate(0 0)"/><path class="cls-2" d="M70.32,153.56h0a10.18,10.18,0,0,0-3.85-2.43,10.12,10.12,0,0,1,3.82,2.39Z" transform="translate(0 0)"/><path class="cls-2" d="M69.62,201a10.05,10.05,0,0,1-2.42-3.87A10.15,10.15,0,0,0,69.62,201l.11.11a10.22,10.22,0,0,0,14.45,0L88,197.34l-3.79,3.79a10.22,10.22,0,0,1-14.45,0Z" transform="translate(0 0)"/><path class="cls-2" d="M61.63,150.67a10.1,10.1,0,0,1,4.84.47A10.34,10.34,0,0,0,61.63,150.67Z" transform="translate(0 0)"/><path class="cls-2" d="M61.63,150.67a10.17,10.17,0,0,0-3.7,1.3A9.82,9.82,0,0,1,61.63,150.67Z" transform="translate(0 0)"/><path class="cls-2" d="M57.93,152a10.85,10.85,0,0,0-1.26.87A9.44,9.44,0,0,1,57.93,152Z" transform="translate(0 0)"/><path class="cls-2" d="M55.9,153.54l0,0h0Z" transform="translate(0 0)"/><polygon class="cls-2" points="55.87 153.57 47.87 161.57 47.87 161.56 55.87 153.57"/><path class="cls-2" d="M56.67,139.53a22.13,22.13,0,0,0-9.23,5.54h0s0-.05,0-.07A22,22,0,0,1,56.67,139.53Z" transform="translate(0 0)"/></svg>